<svg xmlns="http://www.w3.org/2000/svg" version="1.1" xmlns:xlink="http://www.w3.org/1999/xlink" xmlns:svgjs="http://svgjs.dev/svgjs" width="1000" height="1000" viewBox="0 0 1000 1000"><rect width="1000" height="1000" fill="#000000"></rect><g transform="matrix(0.7,0,0,0.7,149.57575757575756,282.1265587044535)"><svg viewBox="0 0 396 247" data-background-color="#0c1d36" preserveAspectRatio="xMidYMid meet" height="623" width="1000" xmlns="http://www.w3.org/2000/svg" xmlns:xlink="http://www.w3.org/1999/xlink"><defs></defs><g id="tight-bounds" transform="matrix(1,0,0,1,0.2400000000000091,-0.09999999999999432)"><svg viewBox="0 0 395.52 247.2" height="247.2" width="395.52"><g><svg></svg></g><g><svg viewBox="0 0 395.52 247.2" height="247.2" width="395.52"><g><path d="M284.498 2.181c4.944 1.454 7.658 3.635 8.143 6.544 0 0.761-0.077 1.796-0.229 3.104l-96.953 0c1.053-0.574 2.184-1.124 3.392-1.65 19.146-3.878 33.081-6.495 41.805-7.852 8.725-1.309 17.571-2.084 26.538-2.327 6.544 0 12.312 0.727 17.304 2.181zM172.313 247.2c-17.692 0-31.676-3.344-41.951-10.033-0.915-0.589-1.805-1.187-2.671-1.796h89.962c-12.203 7.886-27.316 11.829-45.34 11.829z" fill="#f9cc0b" data-fill-palette-color="tertiary"></path></g><g transform="matrix(1,0,0,1,16.00575539568345,37.08)"><svg viewBox="0 0 363.5084892086331 173.04" height="173.04" width="363.5084892086331"><g><svg viewBox="0 0 363.5084892086331 173.04" height="173.04" width="363.5084892086331"><g><svg viewBox="0 0 363.5084892086331 173.04" height="173.04" width="363.5084892086331"><g><svg viewBox="0 0 363.5084892086331 173.04" height="173.04" width="363.5084892086331"><g><svg viewBox="0 0 363.5084892086331 173.04" height="173.04" width="363.5084892086331"><g><svg viewBox="0 0 363.5084892086331 173.04" height="173.04" width="363.5084892086331"><g transform="matrix(1,0,0,1,0,0)"><svg width="363.5084892086331" viewBox="-1.399999976158142 -33.400001525878906 73 34.75" height="173.04" data-palette-color="#f9cc0b"><path d="M21.2-33.4Q22.55-33.4 23.58-33.1 24.6-32.8 24.7-32.2L24.7-32.2Q24.7-30.95 22.7-22.55 20.7-14.15 19-7.65L19-7.65Q18.05-4.05 15.33-1.73 12.6 0.6 8.15 0.6L8.15 0.6Q4.5 0.6 2.38-0.78 0.25-2.15-0.58-4.05-1.4-5.95-1.4-7.8L-1.4-7.8Q-1.4-10.7-0.68-12.03 0.05-13.35 1.85-13.35L1.85-13.35Q3.6-13.35 4.6-12.88 5.6-12.4 5.6-11.65L5.6-11.65Q5.6-11.15 4.8-10.05L4.8-10.05Q3.95-8.9 3.95-8.4L3.95-8.4Q4-6.05 5.03-5.15 6.05-4.25 7.9-4.25L7.9-4.25Q9.2-4.25 10.43-5.3 11.65-6.35 12.4-9.15L12.4-9.15 17.25-27.9Q14-27.35 11.9-26.9L11.9-26.9Q10.9-27.25 10.38-27.98 9.85-28.7 9.85-29.7L9.85-29.7Q9.85-31.15 11.8-32L11.8-32Q15.75-32.8 17.55-33.08 19.35-33.35 21.2-33.4L21.2-33.4ZM46.25-5.9Q45.65-4.3 43.9-2.68 42.15-1.05 39.45 0 36.75 1.05 33.55 1.05L33.55 1.05Q28.65 1.05 26.3-0.98 23.95-3 23.95-6.25L23.95-6.25Q23.95-10.95 26.35-14.98 28.75-19 32.8-21.35 36.85-23.7 41.45-23.7L41.45-23.7Q44.3-23.7 46.17-22.03 48.05-20.35 48.05-17.5L48.05-17.5Q48.05-16.4 47.15-15.68 46.25-14.95 44.75-14.95L44.75-14.95Q43.55-14.95 43.12-15.5 42.7-16.05 42.7-16.95L42.7-16.95 42.75-18.1Q42.75-18.7 42.1-19.07 41.45-19.45 40.7-19.45L40.7-19.45Q39.15-19.45 36.52-17.6 33.9-15.75 31.92-12.73 29.95-9.7 29.95-6.25L29.95-6.25Q29.95-4.85 31.05-4.1 32.15-3.35 34.3-3.35L34.3-3.35Q35.65-3.35 37.4-3.9 39.15-4.45 39.6-5.3L39.6-5.3Q41.3-8.4 42.7-8.4L42.7-8.4Q44.75-8.4 45.47-7.63 46.2-6.85 46.25-5.9L46.25-5.9ZM65.9-19.35Q65.3-19.65 64.4-19.65L64.4-19.65Q62.15-19.65 59.9-18.75 57.65-17.85 57.65-16.45L57.65-16.45Q57.65-15.45 58.55-14.85 59.45-14.25 61.4-13.5L61.4-13.5Q63.5-12.65 64.8-11.9 66.1-11.15 67.07-9.73 68.05-8.3 68.05-6.1L68.05-6.1Q68.05-2.5 65.07-0.58 62.1 1.35 57.1 1.35L57.1 1.35Q54.65 1.35 52.55 0.6 50.45-0.15 49.22-1.33 48-2.5 47.9-3.65L47.9-3.65Q47.9-4.85 48.95-5.63 50-6.4 51.9-6.65L51.9-6.65Q51.95-5.65 52.95-4.78 53.95-3.9 55.32-3.38 56.7-2.85 57.7-2.85L57.7-2.85Q59.4-2.85 60.8-3.78 62.2-4.7 62.2-5.95L62.2-5.95Q62.2-8.25 57.75-9.6L57.75-9.6Q54.9-10.45 53.37-12.3 51.85-14.15 51.85-16.2L51.85-16.2Q51.85-20.25 55.52-22.03 59.2-23.8 64.9-23.8L64.9-23.8Q68.1-23.8 69.85-23.05 71.6-22.3 71.6-20.45L71.6-20.45Q71.6-19.2 70.67-18.25 69.75-17.3 68.05-17.3L68.05-17.3Q66.55-17.3 66.12-17.53 65.7-17.75 65.65-18.3L65.65-18.3Q65.65-18.8 65.9-19.35L65.9-19.35Z" opacity="1" transform="matrix(1,0,0,1,0,0)" fill="#ffffff" class="undefined-text-0" data-fill-palette-color="primary" id="text-0"></path></svg></g></svg></g></svg></g></svg></g></svg></g></svg></g></svg></g></svg></g></svg><rect width="395.52" height="247.2" fill="none" stroke="none" visibility="hidden"></rect></g></svg></g></svg>